HIERARCHY
ROOT root
{
OFFSET 0 0 0
CHANNELS 6 Xposition Yposition Zposition Zrotation Yrotation Xrotation
JOINT LeftUpLeg
{
OFFSET 11.3458 0 0
CHANNELS 3 Zrotation Yrotation Xrotation
JOINT LeftLeg
{
OFFSET 0.00037167 -41.5903 -2.53478
CHANNELS 3 Zrotation Yrotation Xrotation
JOINT LeftFoot
{
OFFSET 0.000211091 -44.3828 2.85594
CHANNELS 3 Zrotation Yrotation Xrotation
JOINT LeftToes
{
OFFSET 0 0 16.4975
CHANNELS 3 Zrotation Yrotation Xrotation
End Site
{
OFFSET 0.0799999 -0.047448 9.77978
}
}
}
}
}
JOINT Spine
{
OFFSET 1.82187 23.9065 -8.41027
CHANNELS 3 Zrotation Yrotation Xrotation
JOINT Spine1
{
OFFSET 0 24.995 0.000605945
CHANNELS 3 Zrotation Yrotation Xrotation
JOINT RightShoulder
{
OFFSET -8.98999 1.33453 -0.219958
CHANNELS 3 Zrotation Yrotation Xrotation
JOINT RightArm
{
OFFSET -10.5221 1.15288 0.21561
CHANNELS 3 Zrotation Yrotation Xrotation
JOINT RightForeArm
{
OFFSET -25.1789 -0.412611 -0.112648
CHANNELS 3 Zrotation Yrotation Xrotation
JOINT RightHand
{
OFFSET -23.0777 0.07562 -0.0136592
CHANNELS 3 Zrotation Yrotation Xrotation
End Site
{
OFFSET -13.3284 -0.6 1.50291
}
}
}
}
}
JOINT LeftShoulder1
{
OFFSET 8.98999 1.33453 -0.219959
CHANNELS 3 Zrotation Yrotation Xrotation
JOINT LeftArm
{
OFFSET 10.522 1.15329 0.220044
CHANNELS 3 Zrotation Yrotation Xrotation
JOINT LeftForeArm
{
OFFSET 25.1788 -0.414099 -0.112978
CHANNELS 3 Zrotation Yrotation Xrotation
JOINT LeftHand
{
OFFSET 23.0777 0.0751808 -0.0137337
CHANNELS 3 Zrotation Yrotation Xrotation
End Site
{
OFFSET 13.419 -0.6 1.50292
}
}
}
}
}
JOINT HEad
{
OFFSET -0.0706832 19.3422 -6.30919
CHANNELS 3 Zrotation Yrotation Xrotation
End Site
{
OFFSET -0.29 12.7742 2.51394
}
}
}
}
JOINT RightUpLeg
{
OFFSET -11.3458 0 0
CHANNELS 3 Zrotation Yrotation Xrotation
JOINT RightLeg
{
OFFSET -0.000218165 -41.5901 -2.53712
CHANNELS 3 Zrotation Yrotation Xrotation
JOINT RightFoot
{
OFFSET 0.101694 -44.3826 2.85855
CHANNELS 3 Zrotation Yrotation Xrotation
JOINT RightToes
{
OFFSET 0.0347039 1.3914e-005 16.4975
CHANNELS 3 Zrotation Yrotation Xrotation
End Site
{
OFFSET -0.0799999 -0.137448 9.77979
}
}
}
}
}
}
MOTION
Frames: 14
Frame Time: 0.033333
179.801 84.1141 -7.21827 59.9774 -86.4958 -45.2188 -5.55631 3.88326 -34.8567 -0.965454 -1.72163 32.9936 0.0856432 0.0120635 -3.61788 1.07989e-007 1.41006e-006 -9.78143 -2.62981 0.532102 7.59487 -6.06529 2.10511 13.9704 -0.0068039 8.23569e-005 0.217195 83.615 30.6836 -9.48472 30.8756 48.9815 79.7172 -13.4944 32.6691 5.9512 -4.95415e-022 -2.42657e-020 0 -84.228 -23.9511 -26.9702 -12.5308 -24.4831 41.7805 -3.41585 -3.25784 10.004 9.12525 -1.56737 40.4322 -2.8606 -0.373214 -18.5906 -6.86732 -7.3065 46.3787 1.95458 0.144281 -14.704 -0.218895 0.505265 -31.9238 
176.735 83.9196 -6.74858 20.7551 -81.2851 -6.03278 -5.01436 1.12121 -33.9816 -2.05439 -3.4487 34.5017 0.30119 0.0305933 -5.42638 1.0799e-007 1.41006e-006 -11.1917 -2.40563 1.47089 8.09309 -6.81762 4.91178 14.298 -0.0068039 8.23569e-005 0.217195 85.2286 39.2562 -11.7918 16.3694 31.3104 71.5168 -3.80204 29.7657 8.90658 -4.95415e-022 -2.42657e-020 0 -85.7634 -27.1934 -23.6648 -12.4314 -24.2952 41.9568 -3.49225 -3.4603 10.0123 11.7123 -5.07141 41.1339 0.791063 -0.332369 -22.5789 -11.0792 -10.1685 51.1554 3.42796 0.433251 -16.5133 -0.181097 0.54173 -26.5535 
173.529 83.3333 -6.18287 13.0892 -76.2396 1.40988 -4.61997 -0.475037 -33.5552 -3.62804 -5.3948 37.6854 0.770214 0.0872287 -8.26935 1.0799e-007 1.41006e-006 -12.6065 -2.15215 2.89326 8.78799 -7.73512 8.68545 14.7788 -0.0068039 8.23569e-005 0.217195 85.2369 45.829 -16.2956 10.1891 19.9872 74.7126 12.4662 22.6264 12.4111 -4.95415e-022 -2.42657e-020 0 -87.9584 -30.1577 -20.1374 -12.5335 -24.4882 41.797 -4.03655 -3.43138 10.0274 13.9649 -8.73357 41.2243 3.02397 -0.944353 -27.3192 -13.3262 -10.666 55.2509 4.01458 0.547348 -16.8 -0.168709 0.552295 -24.8892 
170.235 82.7311 -5.42333 11.0186 -71.9152 2.95858 -4.11256 -3.37204 -32.3522 -4.6423 -6.29758 40.1996 1.24027 0.166831 -11.0392 1.07989e-007 1.41006e-006 -12.7067 -2.15899 3.88206 9.36799 -8.04497 10.8465 15.4404 -0.0068039 8.23569e-005 0.217195 84.4378 49.7677 -22.5614 5.66943 10.3175 80.3522 21.2814 17.3599 13.1878 -4.95415e-022 -2.42657e-020 0 -89.7023 -32.3552 -16.7798 -12.9659 -25.298 41.2433 -4.32246 -3.20913 10.0274 16.7052 -12.8308 40.3172 3.53578 -1.56331 -31.9293 -12.9238 -9.38731 57.817 3.99267 0.576552 -17.8024 -0.167447 0.553335 -24.722 
166.738 82.2803 -4.66791 9.40505 -68.0342 3.9433 -3.56415 -5.44802 -30.4279 -5.73154 -7.3278 41.8877 1.75437 0.27065 -13.4347 1.07989e-007 1.41006e-006 -13.3332 -2.1518 4.30606 9.58724 -7.51551 11.265 15.8657 -0.0068039 8.23569e-005 0.217195 83.0469 49.9048 -31.9502 3.91547 6.343 83.0148 21.6364 14.6463 12.7149 -4.95415e-022 -2.42657e-020 0 -90.9565 -33.7075 -14.311 -13.5097 -26.2998 40.8237 -4.45518 -3.26473 10.0327 19.5669 -16.6703 38.9608 3.36369 -1.9574 -36.1865 -11.2743 -7.83547 58.7773 3.41458 0.472718 -18.0154 -0.178284 0.544184 -26.172 
162.855 82.0036 -3.90147 8.40006 -64.5222 4.30261 -2.98212 -6.86526 -27.5158 -6.77707 -8.60953 42.1304 2.32844 0.395536 -15.2809 1.07988e-007 1.41006e-006 -13.6989 -2.11551 4.20096 9.50498 -7.17766 10.6295 15.8867 -0.0068039 8.23569e-005 0.217195 83.3892 47.0459 -36.868 4.64294 8.01599 84.0914 18.236 15.477 12.4024 -4.95415e-022 -2.42657e-020 0 -91.3094 -34.0338 -14.4189 -14.3646 -27.8362 40.4573 -4.84213 -3.08312 10.0364 21.6686 -18.9015 38.2591 2.80712 -2.81704 -39.62 -10.1248 -7.19065 58.0562 2.91469 0.360841 -17.3308 -0.182993 0.540058 -26.8118 
158.966 81.834 -3.12161 7.37664 -60.1456 4.58088 -1.97432 -10.2482 -24.4494 -6.99095 -9.00671 41.7578 2.64723 0.481367 -16.6493 1.07989e-007 1.41006e-006 -14.0387 -1.85259 3.20053 9.43358 -6.71786 8.25841 16.0417 -0.0068039 8.23569e-005 0.217195 84.9603 43.0763 -34.9596 6.51799 12.2175 81.4214 11.3461 20.5789 11.9744 -4.95415e-022 -2.42657e-020 0 -90.5603 -33.8334 -15.592 -15.5643 -29.9113 39.1302 -4.72452 -3.01397 10.0304 22.5572 -19.6754 38.5587 2.77116 -6.67886 -42.5634 -8.86914 -6.74651 56.0403 2.49502 0.27126 -16.7319 -0.179094 0.543481 -26.2815 
154.771 81.9114 -2.56065 5.49982 -57.0627 6.35071 -0.107725 -11.926 -21.3847 -7.11201 -9.76699 40.0201 2.9808 0.569692 -17.7079 1.07988e-007 1.41006e-006 -14.9364 -1.61268 2.28228 8.85353 -5.85014 5.89064 15.3916 -0.0068039 8.23569e-005 0.217195 85.7238 37.7318 -28.1407 8.76574 17.0331 72.8624 3.02825 24.4346 10.569 -4.95415e-022 -2.42657e-020 0 -88.8468 -32.5738 -17.0763 -17.5618 -33.1589 39.4938 -4.34328 -3.06805 10.0226 23.0321 -20.0444 38.9303 4.13173 -10.0086 -45.2181 -8.36696 -7.48465 51.4896 2.13845 0.176664 -14.8652 -0.167537 0.553263 -24.7338 
150.387 82.0082 -1.76464 5.25681 -55.0974 6.17499 0.491853 -12.3747 -16.8134 -6.68316 -10.2881 36.9541 3.08075 0.597439 -18.0258 1.07988e-007 1.41006e-006 -14.6594 -1.79999 1.44964 8.50078 -5.50184 3.70788 15.0673 -0.0068039 8.23569e-005 0.217195 86.3193 32.5228 -23.0149 11.1088 21.783 64.6725 -3.33086 25.8061 9.15365 -4.95415e-022 -2.42657e-020 0 -86.7543 -31.7169 -20.3207 -19.3409 -35.8374 42.7278 -4.60407 -3.53286 10.0482 23.5173 -20.39 38.6878 5.95133 -14.5828 -46.9818 -7.68784 -8.40877 45.7399 1.41137 0.0221907 -11.1674 -0.164011 0.556141 -24.2685 
145.892 82.1357 -0.974847 4.24234 -52.2055 7.09597 2.00942 -13.0821 -13.1879 -6.34685 -10.822 34.3282 2.98102 0.558012 -17.2726 1.07989e-007 1.41006e-006 -17.2524 -1.64459 0.23705 7.93589 -4.39952 0.750885 14.3917 -0.0068039 8.23569e-005 0.217195 86.4108 27.3728 -21.646 13.6714 26.6251 61.5025 -3.54328 25.4852 9.11549 -4.95415e-022 -2.42657e-020 0 -85.1279 -31.323 -23.9043 -20.5677 -37.5702 43.8648 -5.54091 -3.3572 10.0681 23.7581 -21.1716 37.7508 10.5766 -21.8938 -48.904 -7.04078 -9.90027 38.7632 1.20226 -0.0149693 -9.88926 -0.155198 0.563133 -23.1187 
141.368 82.0765 -0.0656369 4.97869 -49.7778 6.98945 2.58371 -13.3544 -10.4185 -5.91802 -10.831 32.5677 2.65311 0.466318 -15.9747 1.07987e-007 1.41006e-006 -21.3159 -1.81617 -0.924759 7.05598 -3.9963 -1.87981 13.082 -0.0068039 8.23569e-005 0.217195 86.6416 22.1574 -21.3287 15.989 30.6423 59.2775 -2.10324 25.6479 9.43738 -4.95415e-022 -2.42657e-020 0 -83.504 -28.8685 -28.4861 -24.6326 -42.6899 44.7782 -9.6847 -2.8324 10.143 23.6215 -22.6174 37.2287 15.2709 -28.5068 -51.5535 -7.40994 -13.1463 32.9574 1.53103 0.0239637 -9.87057 -0.143569 0.57193 -21.6282 
136.238 81.7324 1.02197 4.41305 -48.5502 6.49416 3.51651 -13.499 -7.41462 -5.64724 -9.63429 34.2625 2.10967 0.344796 -14.5304 1.07989e-007 1.41006e-006 -26.7476 -1.64016 -1.63001 6.81907 -3.10109 -3.57057 12.8486 -0.0068039 8.23569e-005 0.217195 85.8826 17.7803 -20.5247 18.4482 34.5303 58.8754 -2.62123 26.5294 9.2985 -4.95415e-022 -2.42657e-020 0 -81.8426 -25.4641 -30.3419 -32.3441 -50.1805 50.424 -11.1861 -3.26728 10.2222 22.6183 -23.851 36.3361 18.3221 -32.2029 -51.3514 -7.44865 -14.7265 30.4571 1.80958 0.062015 -10.2472 -0.039388 0.632539 -9.2844 
131.034 80.9374 2.15328 4.05221 -48.6112 5.50018 4.23215 -10.2284 -6.82316 -5.94497 -7.68499 41.5953 1.33434 0.188516 -11.8435 1.07987e-007 1.41006e-006 -37.0035 -1.45069 -1.51028 6.64338 -2.46748 -3.44673 12.5559 -0.0068039 8.23569e-005 0.217195 84.5488 13.0058 -20.5628 21.6786 39.0683 59.7527 -2.97864 26.5921 9.21268 -4.95415e-022 -2.42657e-020 0 -81.0727 -22.254 -32.4919 -43.8726 -57.5239 61.689 -9.9086 -2.37945 10.1091 21.6471 -26.0062 35.6121 15.2697 -29.2715 -48.7975 -9.8037 -15.5449 36.1002 0.359839 -0.116534 -5.23721 -0.0282798 0.637346 -8.04719 
125.746 80.1063 3.1858 2.741 -49.7313 3.99112 5.78064 -5.97456 -7.8272 -6.12029 -5.16984 53.6476 0.173871 0.0211877 -5.90753 1.07987e-007 1.41006e-006 -41.7649 -0.989785 -0.885593 7.01847 -1.31709 -2.31477 13.2165 -0.0068039 8.23569e-005 0.217195 82.6328 9.61654 -21.3031 23.9553 41.8992 58.0786 -2.89044 26.3516 9.23988 -4.95415e-022 -2.42657e-020 0 -80.5617 -20.9958 -35.4496 -56.8212 -62.3898 65.9068 -13.9607 -2.38463 10.1923 20.4909 -28.2702 35.3867 13.003 -25.9645 -46.7571 -13.28 -15.1159 45.471 0.404866 -0.113001 -5.26816 0.0249946 0.656615 -2.25403 
